<svg width="14" height="15" viewBox="0 0 14 15" fill="none" xmlns="http://www.w3.org/2000/svg">
<path fill-rule="evenodd" clip-rule="evenodd" d="M2.68534 13.4986C5.15341 15.0651 8.84694 14.43 11.4489 11.8281C14.3778 8.89913 14.8144 4.58702 12.4241 2.19669C10.0338 -0.193635 5.72168 0.24299 2.79275 3.17192C-0.136186 6.10085 -0.572812 10.413 1.81752 12.8033C1.86278 12.8486 1.90873 12.8928 1.95534 12.936L3.93432 10.4942L3.93432 7.79853L4.59313 9.82551L6.01431 8.22338L5.73692 6.38754L6.52487 7.49944L8.56531 5.21075L7.13081 7.79853L8.56531 8.22338L6.75118 8.62078L5.15748 10.2435L7.66522 10.4942L4.59313 11.1574L2.68534 13.4986Z" fill="white"/>
</svg>
